<svg xmlns="http://www.w3.org/2000/svg" width="24" height="24"><path d="M12 2a10 10 0 0 0-.906.049l-.96 2.691a7.5 7.5 0 0 0-1.947.81L5.606 4.323A10 10 0 0 0 4.318 5.6l1.23 2.588a7.5 7.5 0 0 0-.802 1.947l-2.701.96A10 10 0 0 0 2 12a10 10 0 0 0 .049.906l2.691.96a7.5 7.5 0 0 0 .81 1.947l-1.228 2.582A10 10 0 0 0 5.6 19.68l2.588-1.23a7.5 7.5 0 0 0 1.947.804l.96 2.701A10 10 0 0 0 12 22a10 10 0 0 0 .906-.049l.96-2.691a7.5 7.5 0 0 0 1.947-.809l2.582 1.227A10 10 0 0 0 19.68 18.4l-1.23-2.587a7.5 7.5 0 0 0 .804-1.948l2.701-.96A10 10 0 0 0 22 12a10 10 0 0 0-.049-.906l-2.691-.96a7.5 7.5 0 0 0-.81-1.947l1.228-2.582A10 10 0 0 0 18.4 4.32l-2.587 1.23a7.5 7.5 0 0 0-1.948-.804l-.96-2.701A10 10 0 0 0 12 2zm0 3a7 7 0 0 1 7 7 7 7 0 0 1-7 7 7 7 0 0 1-7-7 7 7 0 0 1 7-7z"/></svg>