<?xml version="1.0" encoding="UTF-8" standalone="no"?>
<!-- Created with Inkscape (http://www.inkscape.org/) -->

<svg
   xmlns:dc="http://purl.org/dc/elements/1.1/"
   xmlns:cc="http://creativecommons.org/ns#"
   xmlns:rdf="http://www.w3.org/1999/02/22-rdf-syntax-ns#"
   xmlns:svg="http://www.w3.org/2000/svg"
   xmlns="http://www.w3.org/2000/svg"
   xmlns:sodipodi="http://sodipodi.sourceforge.net/DTD/sodipodi-0.dtd"
   xmlns:inkscape="http://www.inkscape.org/namespaces/inkscape"
   width="24"
   height="24"
   viewBox="0 0 24 24"
   version="1.1"
   id="svg8"
   inkscape:version="0.92.4 (unknown)"
   sodipodi:docname="access-unknown.svg">
  <defs
     id="defs2" />
  <sodipodi:namedview
     id="base"
     pagecolor="#ffffff"
     bordercolor="#666666"
     borderopacity="1.0"
     inkscape:pageopacity="0.0"
     inkscape:pageshadow="2"
     inkscape:zoom="17.987919"
     inkscape:cx="-12.079069"
     inkscape:cy="22.357204"
     inkscape:document-units="px"
     inkscape:current-layer="layer1"
     showgrid="true"
     units="px"
     showguides="true"
     inkscape:window-width="1920"
     inkscape:window-height="1015"
     inkscape:window-x="0"
     inkscape:window-y="0"
     inkscape:window-maximized="1"
     inkscape:guide-bbox="true">
    <inkscape:grid
       type="xygrid"
       id="grid4518"
       empcolor="#c33fff"
       empopacity="0.25098039"
       empspacing="4" />
    <sodipodi:guide
       position="2,0"
       orientation="1,0"
       id="guide855"
       inkscape:locked="false" />
    <sodipodi:guide
       position="22,0"
       orientation="1,0"
       id="guide857"
       inkscape:locked="false" />
    <sodipodi:guide
       position="0,22"
       orientation="0,1"
       id="guide859"
       inkscape:locked="false" />
    <sodipodi:guide
       position="0,2"
       orientation="0,1"
       id="guide861"
       inkscape:locked="false" />
    <sodipodi:guide
       position="12,0"
       orientation="1,0"
       id="guide881"
       inkscape:locked="false" />
    <sodipodi:guide
       position="0,9"
       orientation="0,1"
       id="guide846"
       inkscape:locked="false" />
  </sodipodi:namedview>
  <metadata
     id="metadata5">
    <rdf:RDF>
      <cc:Work
         rdf:about="">
        <dc:format>image/svg+xml</dc:format>
        <dc:type
           rdf:resource="http://purl.org/dc/dcmitype/StillImage" />
        <dc:title></dc:title>
        <cc:license
           rdf:resource="http://creativecommons.org/licenses/by-sa/4.0/" />
      </cc:Work>
      <cc:License
         rdf:about="http://creativecommons.org/licenses/by-sa/4.0/">
        <cc:permits
           rdf:resource="http://creativecommons.org/ns#Reproduction" />
        <cc:permits
           rdf:resource="http://creativecommons.org/ns#Distribution" />
        <cc:requires
           rdf:resource="http://creativecommons.org/ns#Notice" />
        <cc:requires
           rdf:resource="http://creativecommons.org/ns#Attribution" />
        <cc:permits
           rdf:resource="http://creativecommons.org/ns#DerivativeWorks" />
        <cc:requires
           rdf:resource="http://creativecommons.org/ns#ShareAlike" />
      </cc:License>
    </rdf:RDF>
  </metadata>
  <g
     inkscape:label="Layer 1"
     inkscape:groupmode="layer"
     id="layer1"
     transform="translate(0,-290.64999)">
    <path
       style="fill:#000000;fill-opacity:1;stroke:none;stroke-width:1px;stroke-linecap:butt;stroke-linejoin:miter;stroke-opacity:1"
       d="M 12.279297,2.0078125 A 19.5,10.869569 0 0 0 10.330078,2.0195312 19.5,10.869569 0 0 0 2.0625,3.3613281 C 2.5694056,9.8790526 6.4156779,22 12,22 17.494491,22 21.302026,10.275389 21.90625,3.6894531 A 19.5,10.869569 0 0 0 12.279297,2.0078125 Z M 12.025391,5.28125 c 0.911458,0 1.624566,0.2213542 2.136718,0.6640625 0.512153,0.438368 0.767579,1.0683594 0.767579,1.8886719 0,0.5685764 -0.161242,1.0438368 -0.482422,1.4257812 -0.316841,0.3776042 -0.687934,0.7667104 -1.113282,1.1660154 -0.243055,0.217014 -0.407335,0.446398 -0.49414,0.689453 -0.08681,0.243056 -0.133898,0.529514 -0.142578,0.859375 h -1.667969 c 0.0043,-0.585937 0.07596,-1.061198 0.214844,-1.425781 C 11.38737,10.184245 11.646267,9.8342014 12.019531,9.5 12.31901,9.2352431 12.564887,8.984809 12.755859,8.7460938 c 0.195313,-0.2387153 0.292969,-0.5156251 0.292969,-0.828125 0,-0.733507 -0.342014,-1.0996094 -1.023437,-1.0996094 -0.269098,0 -0.511502,0.086155 -0.728516,0.2597656 -0.217014,0.1736111 -0.32921,0.4570313 -0.337891,0.8476562 H 9.0703125 c 0.013021,-0.9027777 0.3009983,-1.5703125 0.8652344,-2 C 10.504123,5.4960938 11.200738,5.28125 12.025391,5.28125 Z m -0.128907,7.695312 c 0.321181,0 0.576606,0.09614 0.767578,0.28711 0.190973,0.190972 0.28711,0.426866 0.28711,0.708984 0,0.282118 -0.09614,0.519966 -0.28711,0.710938 -0.190972,0.190972 -0.446397,0.285156 -0.767578,0.285156 -0.32118,0 -0.578559,-0.09418 -0.769531,-0.285156 -0.186632,-0.190972 -0.279297,-0.42882 -0.279297,-0.710938 0,-0.282118 0.09267,-0.518012 0.279297,-0.708984 0.190972,-0.190972 0.448351,-0.287109 0.769531,-0.28711 z"
       transform="translate(0,290.64999)"
       id="path836"
       inkscape:connector-curvature="0"
       inkscape:label="shield" />
  </g>
</svg>
