<?xml version="1.0" encoding="UTF-8" standalone="no"?>
<!-- Created with Inkscape (http://www.inkscape.org/) -->

<svg
   xmlns:dc="http://purl.org/dc/elements/1.1/"
   xmlns:cc="http://creativecommons.org/ns#"
   xmlns:rdf="http://www.w3.org/1999/02/22-rdf-syntax-ns#"
   xmlns:svg="http://www.w3.org/2000/svg"
   xmlns="http://www.w3.org/2000/svg"
   xmlns:sodipodi="http://sodipodi.sourceforge.net/DTD/sodipodi-0.dtd"
   xmlns:inkscape="http://www.inkscape.org/namespaces/inkscape"
   width="24"
   height="24"
   viewBox="0 0 24 24"
   version="1.1"
   id="svg8"
   inkscape:version="0.92.4 (unknown)"
   sodipodi:docname="role-sys-admin.svg">
  <defs
     id="defs2" />
  <sodipodi:namedview
     id="base"
     pagecolor="#ffffff"
     bordercolor="#666666"
     borderopacity="1.0"
     inkscape:pageopacity="0.0"
     inkscape:pageshadow="2"
     inkscape:zoom="35.890105"
     inkscape:cx="11.928983"
     inkscape:cy="14.654379"
     inkscape:document-units="px"
     inkscape:current-layer="layer1"
     showgrid="true"
     units="px"
     showguides="true"
     inkscape:window-width="1920"
     inkscape:window-height="1015"
     inkscape:window-x="0"
     inkscape:window-y="0"
     inkscape:window-maximized="1"
     inkscape:guide-bbox="true"
     guidetolerance="10000"
     inkscape:object-paths="true"
     inkscape:snap-bbox="true"
     inkscape:snap-to-guides="false">
    <inkscape:grid
       type="xygrid"
       id="grid4518"
       empcolor="#c33fff"
       empopacity="0.25098039"
       empspacing="4" />
    <sodipodi:guide
       position="2,0"
       orientation="1,0"
       id="guide4520"
       inkscape:locked="false" />
    <sodipodi:guide
       position="22,0"
       orientation="1,0"
       id="guide4522"
       inkscape:locked="false" />
    <sodipodi:guide
       position="0,22"
       orientation="0,1"
       id="guide4524"
       inkscape:locked="false" />
    <sodipodi:guide
       position="0,2"
       orientation="0,1"
       id="guide4526"
       inkscape:locked="false" />
  </sodipodi:namedview>
  <metadata
     id="metadata5">
    <rdf:RDF>
      <cc:Work
         rdf:about="">
        <dc:format>image/svg+xml</dc:format>
        <dc:type
           rdf:resource="http://purl.org/dc/dcmitype/StillImage" />
        <dc:title />
        <cc:license
           rdf:resource="http://creativecommons.org/licenses/by-sa/4.0/" />
      </cc:Work>
      <cc:License
         rdf:about="http://creativecommons.org/licenses/by-sa/4.0/">
        <cc:permits
           rdf:resource="http://creativecommons.org/ns#Reproduction" />
        <cc:permits
           rdf:resource="http://creativecommons.org/ns#Distribution" />
        <cc:requires
           rdf:resource="http://creativecommons.org/ns#Notice" />
        <cc:requires
           rdf:resource="http://creativecommons.org/ns#Attribution" />
        <cc:permits
           rdf:resource="http://creativecommons.org/ns#DerivativeWorks" />
        <cc:requires
           rdf:resource="http://creativecommons.org/ns#ShareAlike" />
      </cc:License>
    </rdf:RDF>
  </metadata>
  <g
     inkscape:label="Layer1"
     inkscape:groupmode="layer"
     id="layer1"
     transform="translate(0,-290.64999)">
    <path
       style="opacity:1;fill:#000000;fill-opacity:1;stroke:none;stroke-width:1;stroke-miterlimit:4;stroke-dasharray:none;stroke-opacity:1"
       d="M 12,17 A 10,5 0 0 0 2,22 H 22 A 10,5 0 0 0 12,17 Z"
       transform="translate(0,290.64999)"
       id="path1498"
       inkscape:connector-curvature="0"
       inkscape:label="body" />
    <path
       style="opacity:1;fill:#000000;fill-opacity:1;stroke:none;stroke-width:1;stroke-linecap:round;stroke-linejoin:round;stroke-miterlimit:4;stroke-dasharray:none;stroke-opacity:1;paint-order:markers stroke fill"
       d="M 9,2 C 6.7840001,2 5,3.784 5,6 v 6 c 0,2.216 1.7840001,4 4,4 h 6 c 2.216,0 4,-1.784 4,-4 V 6 C 19,3.784 17.216,2 15,2 Z m 3.230469,2.1074219 c 0.494792,0 0.967014,0.058595 1.414062,0.1757812 0.451389,0.1171867 0.921658,0.2814673 1.41211,0.4941407 L 14.40625,6.3476562 c -0.507813,-0.2083333 -0.929471,-0.3550333 -1.263672,-0.4375 -0.329861,-0.082467 -0.655382,-0.1230468 -0.976562,-0.1230468 -0.381944,0 -0.674913,0.089625 -0.878907,0.2675781 C 11.083116,6.2326408 10.980469,6.46354 10.980469,6.75 c 0,0.1779467 0.04253,0.3341967 0.125,0.46875 0.08247,0.1302067 0.212673,0.258899 0.390625,0.3847656 0.182292,0.1215267 0.608507,0.3428825 1.28125,0.6640625 0.889757,0.4253467 1.500217,0.8535165 1.830078,1.2832031 0.329861,0.4253534 0.49414,0.9477058 0.49414,1.5683598 0,0.85938 -0.309028,1.536463 -0.929687,2.03125 -0.61632,0.494793 -1.475695,0.742187 -2.578125,0.742187 -1.015625,0 -1.9140629,-0.190326 -2.6953125,-0.572266 v -1.875 c 0.6423611,0.286454 1.1842455,0.488283 1.6269535,0.605469 0.447048,0.117194 0.855685,0.175781 1.224609,0.175781 0.442708,0 0.78125,-0.08463 1.015625,-0.253906 0.238715,-0.169273 0.357422,-0.421659 0.357422,-0.755859 0,-0.186633 -0.05208,-0.350914 -0.15625,-0.494141 C 12.86263,10.57509 12.7079,10.433381 12.503906,10.298828 12.304254,10.164281 11.894098,9.9494369 11.273438,9.6542969 10.69184,9.3808569 10.255642,9.1189208 9.9648438,8.8671875 9.6740452,8.6154542 9.4431424,8.3224879 9.2695312,7.9882812 9.0959201,7.6540812 9.0078125,7.2634529 9.0078125,6.8164062 c 0,-0.8420133 0.2849392,-1.5045547 0.8535156,-1.9863281 C 10.434245,4.3483115 11.223525,4.1074219 12.230469,4.1074219 Z"
       transform="translate(0,290.64999)"
       id="rect858"
       inkscape:connector-curvature="0" />
  </g>
</svg>
