<?xml version="1.0" encoding="UTF-8" standalone="no"?>
<!-- Created with Inkscape (http://www.inkscape.org/) -->

<svg
   xmlns:dc="http://purl.org/dc/elements/1.1/"
   xmlns:cc="http://creativecommons.org/ns#"
   xmlns:rdf="http://www.w3.org/1999/02/22-rdf-syntax-ns#"
   xmlns:svg="http://www.w3.org/2000/svg"
   xmlns="http://www.w3.org/2000/svg"
   xmlns:sodipodi="http://sodipodi.sourceforge.net/DTD/sodipodi-0.dtd"
   xmlns:inkscape="http://www.inkscape.org/namespaces/inkscape"
   width="24"
   height="24"
   viewBox="0 0 24 24"
   version="1.1"
   id="svg8"
   inkscape:version="0.92.4 (unknown)"
   sodipodi:docname="role-builder.svg">
  <defs
     id="defs2" />
  <sodipodi:namedview
     id="base"
     pagecolor="#ffffff"
     bordercolor="#666666"
     borderopacity="1.0"
     inkscape:pageopacity="0.0"
     inkscape:pageshadow="2"
     inkscape:zoom="35.890105"
     inkscape:cx="12.987771"
     inkscape:cy="15.654379"
     inkscape:document-units="px"
     inkscape:current-layer="layer1"
     showgrid="true"
     units="px"
     showguides="true"
     inkscape:window-width="1920"
     inkscape:window-height="1015"
     inkscape:window-x="0"
     inkscape:window-y="0"
     inkscape:window-maximized="1"
     inkscape:guide-bbox="true"
     guidetolerance="10000"
     inkscape:object-paths="true"
     inkscape:snap-bbox="true"
     inkscape:snap-to-guides="false">
    <inkscape:grid
       type="xygrid"
       id="grid4518"
       empcolor="#c33fff"
       empopacity="0.25098039"
       empspacing="4" />
    <sodipodi:guide
       position="2,0"
       orientation="1,0"
       id="guide4520"
       inkscape:locked="false" />
    <sodipodi:guide
       position="22,0"
       orientation="1,0"
       id="guide4522"
       inkscape:locked="false" />
    <sodipodi:guide
       position="0,22"
       orientation="0,1"
       id="guide4524"
       inkscape:locked="false" />
    <sodipodi:guide
       position="0,2"
       orientation="0,1"
       id="guide4526"
       inkscape:locked="false" />
  </sodipodi:namedview>
  <metadata
     id="metadata5">
    <rdf:RDF>
      <cc:Work
         rdf:about="">
        <dc:format>image/svg+xml</dc:format>
        <dc:type
           rdf:resource="http://purl.org/dc/dcmitype/StillImage" />
        <dc:title />
        <cc:license
           rdf:resource="http://creativecommons.org/licenses/by-sa/4.0/" />
      </cc:Work>
      <cc:License
         rdf:about="http://creativecommons.org/licenses/by-sa/4.0/">
        <cc:permits
           rdf:resource="http://creativecommons.org/ns#Reproduction" />
        <cc:permits
           rdf:resource="http://creativecommons.org/ns#Distribution" />
        <cc:requires
           rdf:resource="http://creativecommons.org/ns#Notice" />
        <cc:requires
           rdf:resource="http://creativecommons.org/ns#Attribution" />
        <cc:permits
           rdf:resource="http://creativecommons.org/ns#DerivativeWorks" />
        <cc:requires
           rdf:resource="http://creativecommons.org/ns#ShareAlike" />
      </cc:License>
    </rdf:RDF>
  </metadata>
  <g
     inkscape:label="Layer1"
     inkscape:groupmode="layer"
     id="layer1"
     transform="translate(0,-290.64999)">
    <path
       style="opacity:1;fill:#000000;fill-opacity:1;stroke:none;stroke-width:1;stroke-miterlimit:4;stroke-dasharray:none;stroke-opacity:1"
       d="M 12,17 A 10,5 0 0 0 2,22 H 22 A 10,5 0 0 0 12,17 Z"
       transform="translate(0,290.64999)"
       id="path1498"
       inkscape:connector-curvature="0"
       inkscape:label="body" />
    <path
       style="opacity:1;fill:#000000;fill-opacity:1;stroke:none;stroke-width:1;stroke-linecap:round;stroke-linejoin:round;stroke-miterlimit:4;stroke-dasharray:none;stroke-opacity:1;paint-order:markers stroke fill"
       d="M 9,2 C 6.7840001,2 5,3.784 5,6 v 6 c 0,2.216 1.7840001,4 4,4 h 6 c 2.216,0 4,-1.784 4,-4 V 6 C 19,3.784 17.216,2 15,2 Z M 9.4277344,3 H 14.572266 C 16.471695,3 18,4.5283044 18,6.4277344 V 11.572266 C 18,13.471696 16.471695,15 14.572266,15 H 9.4277344 C 7.528306,15 6,13.471696 6,11.572266 V 6.4277344 C 6,4.5283044 7.528306,3 9.4277344,3 Z"
       transform="translate(0,290.64999)"
       id="rect858"
       inkscape:connector-curvature="0"
       inkscape:label="face" />
    <path
       inkscape:connector-curvature="0"
       id="path996"
       style="font-style:normal;font-variant:normal;font-weight:bold;font-stretch:normal;font-size:12px;line-height:1.25;font-family:'Open Sans';-inkscape-font-specification:'Open Sans Bold';letter-spacing:0px;word-spacing:0px;fill:#000000;fill-opacity:1;stroke:none"
       d="m 8.824219,295.36678 h 2.666015 q 1.822266,0 2.642579,0.52148 0.826171,0.51563 0.826171,1.6465 0,0.76756 -0.363281,1.25976 -0.357422,0.49219 -0.955078,0.5918 v 0.0586 q 0.814453,0.18164 1.171875,0.67969 0.363281,0.49804 0.363281,1.32422 0,1.17187 -0.849609,1.82812 -0.84375,0.65625 -2.296875,0.65625 H 8.824219 Z m 1.816406,3.39258 h 1.054688 q 0.738281,0 1.066406,-0.22852 0.333984,-0.22852 0.333984,-0.75585 0,-0.49219 -0.363281,-0.70313 -0.357422,-0.21679 -1.136719,-0.21679 h -0.955078 z m 0,1.4414 v 2.23242 h 1.183594 q 0.75,0 1.107422,-0.28711 0.357422,-0.2871 0.357422,-0.8789 0,-1.06641 -1.523438,-1.06641 z"
       inkscape:label="role" />
  </g>
</svg>
