<?xml version="1.0" encoding="UTF-8" standalone="no"?>
<!-- Created with Inkscape (http://www.inkscape.org/) -->

<svg
   xmlns:dc="http://purl.org/dc/elements/1.1/"
   xmlns:cc="http://creativecommons.org/ns#"
   xmlns:rdf="http://www.w3.org/1999/02/22-rdf-syntax-ns#"
   xmlns:svg="http://www.w3.org/2000/svg"
   xmlns="http://www.w3.org/2000/svg"
   xmlns:sodipodi="http://sodipodi.sourceforge.net/DTD/sodipodi-0.dtd"
   xmlns:inkscape="http://www.inkscape.org/namespaces/inkscape"
   width="24"
   height="24"
   viewBox="0 0 24 24"
   version="1.1"
   id="svg8"
   inkscape:version="0.92.4 (unknown)"
   sodipodi:docname="status-success.svg">
  <defs
     id="defs2" />
  <sodipodi:namedview
     id="base"
     pagecolor="#ffffff"
     bordercolor="#666666"
     borderopacity="1.0"
     inkscape:pageopacity="0.0"
     inkscape:pageshadow="2"
     inkscape:zoom="26.5625"
     inkscape:cx="7.6930268"
     inkscape:cy="8.3026678"
     inkscape:document-units="px"
     inkscape:current-layer="layer1"
     showgrid="true"
     units="px"
     showguides="true"
     inkscape:window-width="1920"
     inkscape:window-height="1015"
     inkscape:window-x="0"
     inkscape:window-y="0"
     inkscape:window-maximized="1"
     inkscape:guide-bbox="true">
    <inkscape:grid
       type="xygrid"
       id="grid4518"
       empcolor="#c33fff"
       empopacity="0.25098039"
       empspacing="4"
       visible="true" />
    <sodipodi:guide
       position="2,0"
       orientation="1,0"
       id="guide4520"
       inkscape:locked="false" />
    <sodipodi:guide
       position="22,0"
       orientation="1,0"
       id="guide4522"
       inkscape:locked="false" />
    <sodipodi:guide
       position="0,22"
       orientation="0,1"
       id="guide4524"
       inkscape:locked="false" />
    <sodipodi:guide
       position="0,2"
       orientation="0,1"
       id="guide4526"
       inkscape:locked="false" />
    <sodipodi:guide
       position="12,0"
       orientation="1,0"
       id="guide5911"
       inkscape:locked="false" />
    <sodipodi:guide
       position="2,0"
       orientation="1,0"
       id="guide6259"
       inkscape:locked="false" />
  </sodipodi:namedview>
  <metadata
     id="metadata5">
    <rdf:RDF>
      <cc:Work
         rdf:about="">
        <dc:format>image/svg+xml</dc:format>
        <dc:type
           rdf:resource="http://purl.org/dc/dcmitype/StillImage" />
        <dc:title></dc:title>
        <cc:license
           rdf:resource="http://creativecommons.org/licenses/by-sa/4.0/" />
      </cc:Work>
      <cc:License
         rdf:about="http://creativecommons.org/licenses/by-sa/4.0/">
        <cc:permits
           rdf:resource="http://creativecommons.org/ns#Reproduction" />
        <cc:permits
           rdf:resource="http://creativecommons.org/ns#Distribution" />
        <cc:requires
           rdf:resource="http://creativecommons.org/ns#Notice" />
        <cc:requires
           rdf:resource="http://creativecommons.org/ns#Attribution" />
        <cc:permits
           rdf:resource="http://creativecommons.org/ns#DerivativeWorks" />
        <cc:requires
           rdf:resource="http://creativecommons.org/ns#ShareAlike" />
      </cc:License>
    </rdf:RDF>
  </metadata>
  <g
     inkscape:label="Layer 1"
     inkscape:groupmode="layer"
     id="layer1"
     transform="translate(0,-290.64999)">
    <path
       style="opacity:1;fill:#000000;fill-opacity:1;stroke:none;stroke-width:1.0380677;stroke-miterlimit:4;stroke-dasharray:none;stroke-opacity:1"
       d="M 12,2 A 9.9999995,9.9999875 0 0 0 11.09375,2.048828 L 10.134766,4.7402344 A 7.4999996,7.4999906 0 0 0 8.1875,5.5507812 L 5.6054688,4.3222656 A 9.9999995,9.9999875 0 0 0 4.3183594,5.5996094 L 5.5488281,8.1875 A 7.4999996,7.4999906 0 0 0 4.7460938,10.134766 L 2.0449219,11.095703 A 9.9999995,9.9999875 0 0 0 2,12 9.9999995,9.9999875 0 0 0 2.048828,12.90625 l 2.6914063,0.958984 A 7.4999996,7.4999906 0 0 0 5.5507812,15.8125 l -1.2285156,2.582031 a 9.9999995,9.9999875 0 0 0 1.2773438,1.285157 L 8.1875,18.449219 a 7.4999996,7.4999906 0 0 0 1.947266,0.804687 l 0.960937,2.701172 A 9.9999995,9.9999875 0 0 0 12,22 9.9999995,9.9999875 0 0 0 12.90625,21.95117 l 0.958984,-2.691406 A 7.4999996,7.4999906 0 0 0 15.8125,18.451172 l 2.582031,1.226562 a 9.9999995,9.9999875 0 0 0 1.285157,-1.277343 L 18.449219,15.8125 a 7.4999996,7.4999906 0 0 0 0.804687,-1.947266 l 2.701172,-0.960937 A 9.9999995,9.9999875 0 0 0 22,12 9.9999995,9.9999875 0 0 0 21.951172,11.09375 L 19.259766,10.134766 A 7.4999996,7.4999906 0 0 0 18.449219,8.1875 L 19.677734,5.6054688 A 9.9999995,9.9999875 0 0 0 18.400391,4.3203125 L 15.8125,5.5507812 A 7.4999996,7.4999906 0 0 0 13.865234,4.7460938 L 12.904297,2.0449219 A 9.9999995,9.9999875 0 0 0 12,2 Z m 3.888672,5.7578125 1.414062,1.4140625 -7.070312,7.070313 -0.7070314,-0.707032 -0.7070312,-0.707031 -2.1210938,-2.121094 1.4140625,-1.414062 2.1210939,2.121093 z"
       transform="translate(0,290.64999)"
       id="path1066"
       inkscape:connector-curvature="0"
       inkscape:label="cog" />
  </g>
</svg>
