<svg xmlns="http://www.w3.org/2000/svg" width="24" height="24"><path d="M12.28 2.008a19.5 10.87 0 0 0-1.95.012A19.5 10.87 0 0 0 2.062 3.36C2.57 9.88 6.417 22 12 22c5.494 0 9.302-11.725 9.906-18.31a19.5 10.87 0 0 0-9.627-1.682zM12.056 5a5 5 0 0 1 3.894 1.936l.233.326a5 5 0 0 1-1.364 6.865 5 5 0 0 1-6.89-1.225 5 5 0 0 1 1.086-6.914 5 5 0 0 1 .416-.277A5 5 0 0 1 12.057 5zm-.196 1.504a3.5 3.5 0 0 0-1.66.494v-.002a3.5 3.5 0 0 0-.29.195 3.5 3.5 0 0 0-1.263 3.807l5.608-3.67a3.5 3.5 0 0 0-2.395-.824zM15.354 9l-5.61 3.674a3.5 3.5 0 0 0 4.23.215A3.5 3.5 0 0 0 15.355 9z"/></svg>