<svg xmlns="http://www.w3.org/2000/svg" width="24" height="24"><path d="M12.28 2.008a19.5 10.87 0 0 0-1.95.012A19.5 10.87 0 0 0 2.062 3.36C2.57 9.88 6.417 22 12 22c5.494 0 9.302-11.725 9.906-18.31a19.5 10.87 0 0 0-9.627-1.682zm-.255 3.273c.912 0 1.625.222 2.137.664.512.439.768 1.069.768 1.889 0 .569-.162 1.044-.483 1.426-.317.377-.688.766-1.113 1.166-.243.217-.407.446-.494.69-.087.242-.134.529-.143.859H11.03c.005-.586.076-1.062.215-1.426.143-.365.402-.715.776-1.049.299-.265.545-.515.736-.754.195-.239.293-.516.293-.828 0-.734-.342-1.1-1.024-1.1-.269 0-.511.087-.728.26-.217.174-.33.457-.338.848H9.07c.013-.903.301-1.57.866-2 .568-.43 1.265-.645 2.09-.645zm-.129 7.696c.322 0 .577.096.768.287a.963.963 0 0 1 .287.709c0 .282-.096.52-.287.71-.19.192-.446.286-.768.286-.32 0-.578-.094-.769-.285a.978.978 0 0 1-.28-.711c0-.282.093-.518.28-.71.19-.19.448-.286.77-.286z"/></svg>