<svg xmlns="http://www.w3.org/2000/svg" width="24" height="24"><path d="M12 17a10 5 0 0 0-10 5h20a10 5 0 0 0-10-5z"/><path d="M9 2C6.784 2 5 3.784 5 6v6c0 2.216 1.784 4 4 4h6c2.216 0 4-1.784 4-4V6c0-2.216-1.784-4-4-4zm.428 1h5.144A3.42 3.42 0 0 1 18 6.428v5.144A3.42 3.42 0 0 1 14.572 15H9.428A3.42 3.42 0 0 1 6 11.572V6.428A3.42 3.42 0 0 1 9.428 3z" paint-order="markers stroke fill"/><path style="line-height:1.25;-inkscape-font-specification:'Open Sans Bold'" d="M8.824 4.717h2.666q1.822 0 2.643.521.826.516.826 1.647 0 .767-.363 1.26-.358.492-.955.591v.059q.814.182 1.171.68.364.498.364 1.324 0 1.172-.85 1.828-.844.656-2.297.656H8.824zm1.817 3.392h1.054q.739 0 1.067-.228.334-.229.334-.756 0-.492-.364-.703-.357-.217-1.136-.217h-.955zm0 1.442v2.232h1.183q.75 0 1.108-.287.357-.287.357-.879 0-1.066-1.523-1.066z" font-weight="700" font-size="12" font-family="Open Sans" letter-spacing="0" word-spacing="0"/></svg>