<svg xmlns="http://www.w3.org/2000/svg" width="24" height="24"><g paint-order="markers stroke fill"><path d="M12 2A10 10 0 0 0 2 12a10 10 0 0 0 10 10 10 10 0 0 0 10-10A10 10 0 0 0 12 2zm0 1a9 9 0 0 1 9 9 9 9 0 0 1-9 9 9 9 0 0 1-9-9 9 9 0 0 1 9-9z"/><path d="M12 4a8 8 0 0 0-8 8 8 8 0 0 0 8 8 8 8 0 0 0 8-8 8 8 0 0 0-8-8zm0 1a7 7 0 0 1 7 7 7 7 0 0 1-7 7 7 7 0 0 1-7-7 7 7 0 0 1 7-7z"/><path d="M9.45 7.734v8.532h1.763v-3.012h1.57c1.008 0 1.793-.244 2.356-.733.566-.488.85-1.144.85-1.968 0-.817-.284-1.49-.85-2.022-.563-.531-1.348-.797-2.356-.797zm1.763 1.424h1.57c.504 0 .867.143 1.09.428.223.281.334.607.334.978 0 .372-.111.676-.334.915-.223.238-.586.357-1.09.357h-1.57z"/></g></svg>