<svg xmlns="http://www.w3.org/2000/svg" width="24" height="24"><path d="M12 17a10 5 0 0 0-10 5h20a10 5 0 0 0-10-5z"/><path d="M8.735 2c-2.216 0-4 1.784-4 4v6c0 2.216 1.784 4 4 4h6c2.216 0 4-1.784 4-4V6c0-2.216-1.784-4-4-4zm.428 1h5.144a3.42 3.42 0 0 1 3.428 3.428v5.144A3.42 3.42 0 0 1 14.307 15H9.163a3.42 3.42 0 0 1-3.428-3.428V6.428A3.42 3.42 0 0 1 9.163 3z" paint-order="markers stroke fill"/><path style="line-height:1.25;-inkscape-font-specification:'Open Sans Bold'" d="M13.8 4.717h1.834l-2.912 8.566h-1.98L7.836 4.717H9.67l1.61 5.097q.136.452.276 1.055.147.598.182.832.064-.539.44-1.887z" font-weight="700" font-size="12" font-family="Open Sans" letter-spacing="0" word-spacing="0"/></svg>