<svg xmlns="http://www.w3.org/2000/svg" width="24" height="24"><g paint-order="markers stroke fill"><path d="M12 4a8 8 0 0 0-8 8 8 8 0 0 0 8 8 8 8 0 0 0 8-8 8 8 0 0 0-8-8zm0 1a7 7 0 0 1 7 7 7 7 0 0 1-7 7 7 7 0 0 1-7-7 7 7 0 0 1 7-7z"/><path d="M8.83 7.734v8.532h3.264c.984 0 1.742-.211 2.273-.633.535-.426.803-1.053.803-1.881 0-.41-.11-.795-.328-1.154-.219-.36-.578-.602-1.078-.727.422-.168.73-.414.925-.738.196-.324.293-.68.293-1.067 0-.796-.279-1.384-.837-1.763-.56-.38-1.332-.569-2.32-.569zm1.764 1.424h1.23c.93 0 1.395.363 1.395 1.09 0 .703-.465 1.055-1.395 1.055h-1.23zm0 3.387h1.57c.445 0 .764.107.955.322.195.211.293.5.293.867 0 .32-.107.586-.322.797-.215.211-.547.317-.996.317h-1.5z"/></g></svg>