<svg xmlns="http://www.w3.org/2000/svg" width="24" height="24"><g paint-order="markers stroke fill"><path d="M12 2A10 10 0 0 0 2 12a10 10 0 0 0 10 10 10 10 0 0 0 10-10A10 10 0 0 0 12 2zm0 1a9 9 0 0 1 9 9 9 9 0 0 1-9 9 9 9 0 0 1-9-9 9 9 0 0 1 9-9z"/><path d="M12 4a8 8 0 0 0-8 8 8 8 0 0 0 8 8 8 8 0 0 0 8-8 8 8 0 0 0-8-8zm0 1a7 7 0 0 1 7 7 7 7 0 0 1-7 7 7 7 0 0 1-7-7 7 7 0 0 1 7-7z"/><path d="M12.137 7.617c-.922 0-1.676.219-2.266.656-.59.438-.887 1.014-.887 1.729 0 .738.282 1.307.844 1.705.563.398 1.234.723 2.012.973.691.218 1.14.424 1.351.615.211.191.317.435.317.732a.86.86 0 0 1-.328.686c-.215.183-.547.275-1 .275-.504 0-.914-.105-1.227-.316-.308-.211-.46-.576-.46-1.096H8.726c0 .645.171 1.174.511 1.588.34.414.774.72 1.301.92.527.2 1.074.299 1.64.299.938 0 1.688-.207 2.25-.621.563-.418.844-1 .844-1.746 0-.704-.242-1.27-.722-1.7-.477-.43-1.18-.787-2.114-1.072-.55-.168-.972-.346-1.261-.533-.29-.188-.434-.422-.434-.703a.89.89 0 0 1 .336-.697c.227-.196.57-.293 1.031-.293.473 0 .825.115 1.055.345.23.23.344.526.344.885h1.758c0-.766-.286-1.394-.856-1.887-.57-.496-1.328-.744-2.273-.744z"/></g></svg>