<svg xmlns="http://www.w3.org/2000/svg" width="24" height="24"><path d="M12 17a10 5 0 0 0-10 5h20a10 5 0 0 0-10-5z"/><path d="M9 2C6.784 2 5 3.784 5 6v6c0 2.216 1.784 4 4 4h6c2.216 0 4-1.784 4-4V6c0-2.216-1.784-4-4-4zm-.27 2.734h3.334c1.008 0 1.793.266 2.356.797.566.531.85 1.205.85 2.022 0 .824-.284 1.48-.85 1.968-.563.489-1.348.733-2.356.733h-1.57v3.012H8.73zm1.764 1.424v2.678h1.57c.504 0 .868-.12 1.09-.357.223-.239.334-.543.334-.915 0-.37-.111-.697-.334-.978-.222-.285-.586-.428-1.09-.428z" paint-order="markers stroke fill"/></svg>