<svg xmlns="http://www.w3.org/2000/svg" width="24" height="24"><path d="M12 17a10 5 0 0 0-10 5h20a10 5 0 0 0-10-5z"/><path d="M9 2C6.784 2 5 3.784 5 6v6c0 2.216 1.784 4 4 4h6c2.216 0 4-1.784 4-4V6c0-2.216-1.784-4-4-4zm3.23 2.107c.495 0 .967.059 1.415.176.45.117.921.282 1.412.494l-.65 1.57a9.477 9.477 0 0 0-1.264-.437 4.014 4.014 0 0 0-.977-.123c-.382 0-.675.09-.879.268a.878.878 0 0 0-.307.695.88.88 0 0 0 .125.469c.083.13.213.259.391.385.182.121.609.342 1.281.664.89.425 1.5.853 1.83 1.283.33.425.495.947.495 1.568 0 .86-.31 1.537-.93 2.031-.616.495-1.476.743-2.578.743-1.016 0-1.914-.19-2.696-.573v-1.875c.643.287 1.185.489 1.627.606.447.117.856.176 1.225.176.443 0 .781-.085 1.016-.254.238-.17.357-.422.357-.756a.817.817 0 0 0-.156-.494 1.71 1.71 0 0 0-.463-.424c-.2-.135-.61-.35-1.23-.645-.582-.273-1.018-.535-1.31-.787a2.953 2.953 0 0 1-.694-.879c-.174-.334-.262-.725-.262-1.172 0-.842.285-1.504.853-1.986.573-.482 1.363-.723 2.37-.723z" paint-order="markers stroke fill"/></svg>